<svg version="1.1" id="Layer_1" xmlns="http://www.w3.org/2000/svg" xmlns:xlink="http://www.w3.org/1999/xlink" x="0px" y="0px"
	 width="100%" viewBox="0 0 2020 638" enable-background="new 0 0 2020 638" xml:space="preserve">
<path fill="#FEFEFE" opacity="1.000000" stroke="none" 
	d="
M1434.000000,639.000000 
	C957.500061,639.000000 481.500183,638.994812 5.500275,639.092773 
	C1.751828,639.093567 0.904533,638.250061 0.906416,634.500183 
	C1.011682,424.833618 1.011670,215.166992 0.906529,5.500416 
	C0.904649,1.752050 1.749714,0.906676 5.499642,0.907216 
	C675.832825,1.003670 1346.166016,1.003660 2016.499268,0.907416 
	C2020.246460,0.906878 2021.095581,1.748220 2021.093628,5.499315 
	C2020.988281,215.165894 2020.988525,424.832520 2021.093506,634.499084 
	C2021.095337,638.246277 2020.252197,639.095886 2016.500854,639.093811 
	C1822.500610,638.987366 1628.500244,639.000000 1434.000000,639.000000 
z"/>
<path fill="#232021" opacity="1.000000" stroke="none" 
	d="
M213.838226,307.183685 
	C173.348419,281.488647 151.282364,243.883163 140.958389,198.412460 
	C136.183395,177.381546 135.004593,155.912415 133.072632,134.536575 
	C131.828491,120.770790 130.861664,106.979744 129.589157,93.216782 
	C128.238403,78.607567 133.335724,72.969025 148.145279,72.987366 
	C165.806107,73.009239 183.467041,73.027565 201.127777,72.987701 
	C214.408295,72.957710 218.477066,76.755859 218.658936,90.082664 
	C218.897644,107.573906 218.581085,125.078804 219.129776,142.558167 
	C219.787003,163.495773 222.919037,183.985931 233.327560,202.678741 
	C249.780991,232.227753 275.313751,249.254593 307.953918,255.976746 
	C330.292664,260.577362 353.138733,261.923279 375.607056,265.887970 
	C456.027252,280.078705 516.118958,342.306671 527.179565,423.258118 
	C530.482178,447.429260 530.087341,471.787628 530.711853,496.088379 
	C531.079956,510.410706 531.096130,524.743469 531.154419,539.071960 
	C531.204285,551.332397 526.556824,556.131470 514.362732,556.166748 
	C495.535553,556.221313 476.707214,556.131653 457.880463,555.971558 
	C447.557617,555.883850 442.968475,551.295227 442.880035,540.922913 
	C442.755035,526.261902 442.473938,511.586792 442.943695,496.939636 
	C443.653931,474.794037 443.515839,452.696686 439.048767,430.936737 
	C429.555481,384.693207 401.306854,356.295319 355.680420,345.053101 
	C338.683136,340.864990 321.188812,339.596680 303.921021,337.006042 
	C272.287201,332.260040 241.632385,324.647644 213.838226,307.183685 
z"/>
<path fill="#232021" opacity="1.000000" stroke="none" 
	d="
M959.300903,402.430542 
	C959.772400,395.807281 963.792480,392.376282 971.747131,392.111237 
	C980.904602,391.806122 990.078430,392.028320 999.241150,391.833740 
	C1006.739563,391.674500 1014.195740,390.990143 1021.258362,388.151001 
	C1033.921021,383.060699 1041.718506,373.651428 1045.142578,360.615570 
	C1050.396973,340.611023 1048.583496,321.661926 1035.809204,304.678864 
	C1028.458496,294.906311 1018.229858,290.142090 1006.255371,289.165192 
	C983.809692,287.334076 961.288513,287.764343 938.799194,287.301392 
	C929.479492,287.109497 926.810913,290.333160 926.800293,300.898926 
	C926.744568,356.065338 926.734009,411.231812 926.707825,466.398254 
	C926.699341,484.231506 926.615723,502.065338 926.752441,519.897461 
	C926.777100,523.113464 925.990967,524.162903 922.623718,524.086243 
	C912.130249,523.847473 901.625366,524.131775 891.130493,523.927368 
	C881.644348,523.742615 876.775574,518.829895 876.012939,509.185272 
	C875.894958,507.693359 875.943420,506.186981 875.942688,504.687286 
	C875.909851,437.354492 875.905884,370.021667 875.830688,302.688934 
	C875.813416,287.190918 875.476562,271.693420 875.430969,256.195282 
	C875.398254,245.067139 878.663208,241.807388 889.715881,241.911880 
	C927.712341,242.271103 965.709534,242.473343 1003.706177,242.923904 
	C1052.116699,243.497940 1086.607056,275.950653 1097.820679,315.555542 
	C1108.981567,354.974518 1093.283447,416.363434 1034.676025,432.132019 
	C1030.494141,433.257172 1026.617188,435.195282 1022.624329,436.833618 
	C1019.514282,438.109680 1019.835938,439.422699 1020.969421,442.026306 
	C1029.253296,461.054810 1045.275635,468.331543 1064.404053,470.952454 
	C1070.671753,471.811249 1076.963135,472.522644 1083.259766,473.135315 
	C1085.850342,473.387390 1086.968506,474.210419 1086.936157,477.103973 
	C1086.779419,491.102173 1086.831665,505.103241 1086.894897,519.102905 
	C1086.904419,521.208374 1086.531982,522.576904 1084.128540,522.926880 
	C1046.328247,528.431274 1011.397339,522.514099 981.912415,496.420074 
	C969.237793,485.203064 964.044250,469.881104 961.044495,453.724731 
	C957.915161,436.870636 958.986755,419.858215 959.300903,402.430542 
z"/>
<path fill="#232021" opacity="1.000000" stroke="none" 
	d="
M1776.328125,350.733337 
	C1799.427612,357.260193 1822.305176,363.137726 1844.799438,370.231415 
	C1864.114990,376.322662 1879.855225,387.673584 1889.389648,406.265198 
	C1900.068848,427.088928 1898.878174,448.446106 1891.432617,469.727020 
	C1882.193237,496.135315 1862.508545,510.646332 1835.885010,516.892334 
	C1817.498413,521.205933 1798.923584,523.900757 1780.026489,523.989441 
	C1750.863770,524.126282 1721.700439,524.166443 1692.537354,524.163635 
	C1682.756714,524.162720 1679.688599,521.186951 1679.518799,511.352631 
	C1679.386475,503.692871 1679.569702,496.020599 1679.849976,488.362610 
	C1680.178345,479.396729 1682.007690,477.470398 1691.013916,477.611847 
	C1718.689209,478.046539 1746.321289,476.574768 1773.972778,476.002380 
	C1784.634033,475.781677 1795.318726,475.672180 1805.940430,474.842285 
	C1817.785278,473.916809 1828.245361,469.050110 1836.413940,460.443207 
	C1850.118530,446.003174 1844.693481,422.850891 1825.989380,416.013763 
	C1811.432129,410.692444 1796.054810,408.363464 1780.973145,404.985535 
	C1760.206055,400.334229 1739.457275,395.568146 1719.558228,387.852753 
	C1703.317871,381.556000 1689.920654,371.800232 1680.828491,356.416504 
	C1667.409058,333.710754 1669.346436,299.121674 1685.123535,277.983185 
	C1699.872437,258.221985 1719.928589,248.991394 1743.781738,246.026855 
	C1763.622925,243.560928 1783.578491,242.318954 1803.402588,239.862549 
	C1807.798584,239.317825 1810.781372,242.187027 1814.903320,242.099136 
	C1832.060913,241.733215 1849.229858,241.907822 1866.394531,241.855820 
	C1877.240845,241.822968 1880.044922,244.529556 1879.992676,255.372330 
	C1879.954956,263.201508 1880.107666,271.057129 1879.515503,278.850800 
	C1878.945801,286.346710 1876.834473,287.944244 1869.277710,287.986755 
	C1853.780273,288.073944 1838.280762,287.940796 1822.784668,288.114349 
	C1805.122803,288.312164 1787.456299,288.538025 1769.805298,289.142578 
	C1755.963135,289.616669 1743.379639,294.250610 1732.442383,302.765015 
	C1718.653320,313.499603 1720.580078,329.564972 1736.416260,336.906006 
	C1749.123901,342.796783 1762.519287,346.752014 1776.328125,350.733337 
z"/>
<path fill="#232021" opacity="1.000000" stroke="none" 
	d="
M1628.546387,430.659821 
	C1633.043701,476.019531 1603.077637,513.269958 1557.689209,519.003601 
	C1532.197876,522.223694 1506.545166,522.939148 1480.875488,523.131409 
	C1462.545776,523.268616 1444.216675,523.481812 1425.887329,523.662537 
	C1419.080566,523.729675 1412.998901,519.298950 1411.850098,512.726685 
	C1410.561279,505.352142 1409.647705,497.872650 1410.171997,490.354065 
	C1410.676758,483.116730 1413.320557,480.453674 1420.386719,478.916199 
	C1424.670776,477.984131 1428.987915,477.975311 1433.308716,477.890930 
	C1467.960815,477.214233 1502.625854,476.821350 1537.234863,474.888092 
	C1549.848022,474.183533 1560.842285,468.716614 1569.092773,459.179932 
	C1581.615112,444.705414 1575.897461,423.062317 1557.824463,416.117126 
	C1544.910767,411.154602 1531.177490,409.055542 1517.724731,406.025238 
	C1493.890747,400.656555 1469.929688,395.679810 1447.289673,386.159454 
	C1424.440552,376.551117 1409.439331,360.075500 1404.674927,335.311493 
	C1398.360107,302.489899 1413.422729,270.910034 1442.987915,255.181061 
	C1455.317505,248.621582 1468.900024,246.834152 1482.425049,245.254166 
	C1500.283813,243.167908 1518.245361,241.958984 1536.104004,239.871246 
	C1540.279175,239.383148 1543.133301,242.174652 1547.120483,242.085510 
	C1564.109619,241.705627 1581.111084,241.894928 1598.108032,241.842590 
	C1608.882324,241.809402 1611.781860,244.613281 1611.758423,255.386566 
	C1611.744385,261.884216 1611.721313,268.387848 1611.442871,274.877655 
	C1610.929688,286.832764 1609.683472,287.950470 1597.902344,287.972107 
	C1582.071899,288.001160 1566.241577,288.051117 1550.411133,288.066864 
	C1534.079834,288.083099 1517.744995,288.056427 1501.434204,288.965485 
	C1490.684570,289.564606 1480.406372,292.341187 1470.786011,297.112885 
	C1461.702271,301.618347 1455.667236,308.501282 1455.782715,319.343506 
	C1455.898193,330.187408 1462.005127,337.041138 1471.290894,341.164551 
	C1485.651733,347.541565 1501.111328,350.313477 1516.272217,354.023346 
	C1536.281128,358.919495 1556.775269,361.894379 1576.239746,368.941528 
	C1605.248291,379.444122 1623.050293,399.562347 1628.546387,430.659821 
z"/>
<path fill="#242122" opacity="1.000000" stroke="none" 
	d="
M832.712524,344.814148 
	C831.885986,364.092896 827.312378,381.773285 816.564758,397.491425 
	C802.048340,418.721344 781.221802,429.691559 756.404480,433.882996 
	C737.932983,437.002686 719.233398,436.880096 700.585144,437.328094 
	C696.806030,437.418854 690.614563,431.224854 690.428040,427.161926 
	C690.114990,420.340942 689.820984,413.501923 689.976318,406.680908 
	C690.172180,398.082489 693.669861,394.409637 702.100952,393.001007 
	C713.834961,391.040527 725.744690,392.668427 737.509827,391.189941 
	C754.158264,389.097809 768.321289,382.740295 775.210815,366.455231 
	C789.788818,331.996460 772.841309,290.966400 729.238525,287.899200 
	C710.075317,286.551147 690.930237,287.404938 671.781006,287.005402 
	C663.581299,286.834412 659.920227,290.315735 658.765442,298.386230 
	C658.296448,301.664001 658.197693,305.021667 658.228699,308.340179 
	C658.841125,373.997681 658.495789,439.655365 658.316467,505.313019 
	C658.307739,508.477020 658.251831,511.651733 657.986084,514.801941 
	C657.487244,520.713501 655.214050,523.382385 649.270630,523.725647 
	C637.960510,524.378845 626.619629,524.305603 615.298584,523.744202 
	C610.405457,523.501587 607.701233,520.767456 607.396606,515.815552 
	C607.284119,513.987061 607.177795,512.154358 607.176575,510.323517 
	C607.119873,426.502106 607.069946,342.680664 607.053711,258.859253 
	C607.053284,256.375549 607.182983,253.844666 607.663757,251.417343 
	C608.875671,245.298920 611.993103,242.427887 618.206299,242.018356 
	C622.850220,241.712250 627.530334,241.901474 632.193542,241.951172 
	C664.186890,242.292145 696.180603,242.608612 728.172974,243.030411 
	C742.850159,243.223923 757.552856,243.725052 771.374390,249.457031 
	C804.670349,263.265320 823.758728,288.624023 830.907227,323.485748 
	C832.314819,330.350220 832.691895,337.345032 832.712524,344.814148 
z"/>
<path fill="#232021" opacity="1.000000" stroke="none" 
	d="
M1225.652588,289.397766 
	C1207.787842,292.339111 1200.603394,300.119385 1199.951538,317.862091 
	C1198.360596,361.167297 1198.357178,404.486237 1199.958862,447.789459 
	C1200.619995,465.666504 1210.496826,475.251953 1228.338623,475.964600 
	C1263.652222,477.375092 1298.978760,477.082825 1334.305054,476.487854 
	C1337.797485,476.429016 1341.317627,476.352142 1344.782959,476.700684 
	C1352.984131,477.525604 1356.604248,480.981689 1356.768799,489.166748 
	C1356.952637,498.315186 1356.387329,507.480804 1356.070801,516.636292 
	C1355.901978,521.516296 1353.036255,523.766174 1348.374023,524.031921 
	C1346.378418,524.145752 1344.376465,524.259705 1342.379761,524.228394 
	C1304.060913,523.628052 1265.715698,525.058655 1227.419922,522.926575 
	C1212.482910,522.094971 1197.393555,521.942627 1183.048340,516.817993 
	C1160.360840,508.713318 1149.231934,491.609192 1145.980469,468.570618 
	C1144.135254,455.496826 1144.507080,442.293823 1144.309204,429.149750 
	C1143.707642,389.159485 1143.475952,349.162323 1145.042725,309.184937 
	C1145.722168,291.848877 1149.718872,275.518463 1161.656982,262.177490 
	C1173.259399,249.211548 1188.540039,243.754745 1205.348267,243.275925 
	C1252.323730,241.937668 1299.323120,242.014206 1346.316040,241.980408 
	C1353.767944,241.975052 1356.852783,245.335175 1356.876343,252.834000 
	C1356.909424,263.330872 1356.614014,273.833618 1356.892212,284.322357 
	C1356.997681,288.298218 1355.608154,288.905426 1352.055176,288.893890 
	C1315.060547,288.773865 1278.065552,288.807373 1241.070557,288.848724 
	C1236.076172,288.854309 1231.082153,289.137573 1225.652588,289.397766 
z"/>
<path fill="#232021" opacity="1.000000" stroke="none" 
	d="
M205.002869,522.000000 
	C205.018127,529.166321 205.162994,535.835571 205.015961,542.498291 
	C204.825897,551.112122 200.392929,555.829590 191.732010,556.107971 
	C172.738678,556.718506 153.730759,556.735352 134.754333,555.648926 
	C123.903954,555.027649 118.343987,548.795654 118.137848,537.916992 
	C117.680077,513.758728 116.303482,489.612640 117.008713,465.439117 
	C117.882927,435.473022 121.707230,406.057465 133.962494,378.306396 
	C139.553894,365.645081 146.842270,353.900177 153.987030,342.095276 
	C157.044067,337.044312 163.285141,335.376282 168.811234,337.698578 
	C192.410416,347.615875 215.473938,358.722473 238.818100,369.205780 
	C241.805511,370.547363 242.045120,371.482880 239.774277,373.930847 
	C219.462784,395.826599 210.158691,422.412262 206.976654,451.576111 
	C204.439087,474.833221 205.175781,498.178467 205.002869,522.000000 
z"/>
<path fill="#232021" opacity="1.000000" stroke="none" 
	d="
M465.160217,250.839737 
	C449.739380,243.706985 434.667969,236.719315 419.191223,229.543701 
	C425.613708,222.068451 431.527222,214.510086 436.207062,206.047073 
	C447.687744,185.285477 451.811981,162.660538 452.871307,139.366455 
	C453.628052,122.726257 453.476715,106.046761 454.008606,89.393677 
	C454.389435,77.469734 458.103302,73.773888 469.972168,72.863647 
	C489.945496,71.331856 509.949799,72.416298 529.935120,72.492828 
	C540.385986,72.532837 543.873169,76.511192 544.303833,86.868492 
	C545.908691,125.472404 544.242065,163.796051 533.951050,201.318420 
	C529.407349,217.885315 523.042175,233.746689 514.841736,248.854630 
	C513.890625,250.606903 512.861633,252.324509 511.760559,253.986526 
	C505.609924,263.271057 499.621704,265.538666 489.168091,261.546997 
	C481.112183,258.470886 473.383698,254.537186 465.160217,250.839737 
z"/>
<path fill="#232021" opacity="1.000000" stroke="none" 
	d="
M1354.839478,400.542206 
	C1351.471069,407.099915 1345.423218,407.537842 1339.656494,407.786835 
	C1330.183105,408.195801 1320.685425,408.087952 1311.197754,408.108795 
	C1286.394653,408.163208 1261.591431,408.161438 1236.788330,408.198425 
	C1226.827026,408.213287 1223.826416,405.415527 1223.791992,395.616943 
	C1223.760498,386.628998 1223.783325,377.635498 1224.067627,368.653442 
	C1224.299561,361.325073 1226.566162,359.107208 1233.854980,359.089752 
	C1270.809082,359.001190 1307.763550,358.979736 1344.717773,359.040100 
	C1352.070923,359.052094 1355.723145,361.539368 1356.367554,368.004761 
	C1357.437134,378.738403 1358.001587,389.572296 1354.839478,400.542206 
z"/>
<path fill="#2A2728" opacity="1.000000" stroke="none" 
	d="
M1012.930603,163.669617 
	C1017.670227,161.294006 1022.418457,162.112106 1027.031982,162.016724 
	C1034.358765,161.865295 1041.693115,162.089752 1049.020508,161.952957 
	C1051.421753,161.908112 1052.085571,162.696213 1052.230591,165.030243 
	C1052.387695,167.558380 1051.438965,167.963303 1049.187988,168.165421 
	C1041.545288,168.851669 1033.909668,169.122177 1026.235229,169.027405 
	C1017.445801,168.918915 1013.433289,172.841324 1013.056946,181.678436 
	C1012.887573,185.655975 1012.716736,189.651993 1013.720642,193.603790 
	C1015.344421,199.995819 1018.517944,202.907318 1025.018311,202.437134 
	C1030.375000,202.049698 1035.642090,202.357269 1040.962524,202.611298 
	C1047.950562,202.944962 1052.751465,199.886902 1055.076050,194.445267 
	C1055.977539,192.335068 1055.599854,191.508591 1053.342407,191.116470 
	C1048.429077,190.263031 1043.557617,189.169693 1038.646362,188.303192 
	C1036.925293,187.999527 1035.961426,187.515579 1036.130005,185.483398 
	C1036.276978,183.710236 1036.762573,182.744797 1038.707520,182.613174 
	C1045.186890,182.174759 1051.662109,181.661850 1058.131348,181.093262 
	C1060.232666,180.908539 1060.692993,182.154068 1060.863403,183.774200 
	C1061.280518,187.741165 1061.956177,191.706894 1062.012573,195.680420 
	C1062.126221,203.709534 1058.634644,207.621979 1050.778931,208.906357 
	C1038.379517,210.933624 1026.275146,209.526291 1014.331421,205.915314 
	C1010.580017,204.781113 1008.671265,202.463348 1007.942810,198.552597 
	C1006.139832,188.872879 1007.643311,179.285751 1008.291992,169.671204 
	C1008.477722,166.919037 1010.451294,165.285019 1012.930603,163.669617 
z"/>
<path fill="#262424" opacity="1.000000" stroke="none" 
	d="
M951.781006,178.065262 
	C949.620239,176.823380 947.785156,175.758743 945.049194,174.171478 
	C945.049194,181.214203 945.049316,187.422256 945.049133,193.630295 
	C945.049011,197.793640 945.034302,201.957077 945.055298,206.120316 
	C945.063232,207.686188 945.147705,209.019760 942.820557,208.984543 
	C940.488953,208.949234 940.607239,207.556702 940.607849,206.019852 
	C940.610535,198.858902 940.608459,191.697937 940.608337,184.536987 
	C940.608154,175.764603 940.608215,166.992218 940.608215,157.187393 
	C956.034302,171.172440 970.645020,184.418320 985.994385,198.333801 
	C986.526855,186.957718 986.972717,176.411850 987.572388,165.874725 
	C987.649963,164.510590 986.700073,162.291138 989.471680,162.069321 
	C991.881287,161.876495 993.474304,162.032501 993.432495,165.316025 
	C993.258484,178.969589 993.290649,192.627243 993.411743,206.281937 
	C993.438782,209.333023 992.348511,209.503769 989.871948,208.699417 
	C983.198669,206.532028 977.831421,202.425537 972.895996,197.642883 
	C966.087708,191.045288 959.886597,183.798676 951.781006,178.065262 
z"/>
<path fill="#292627" opacity="1.000000" stroke="none" 
	d="
M670.942383,210.303955 
	C670.680725,211.414078 671.531982,213.164642 669.700684,212.366455 
	C668.528748,211.855652 667.602661,210.754730 666.604553,209.875107 
	C654.233032,198.972778 641.872620,188.057922 629.495972,177.161484 
	C628.300110,176.108643 627.014954,175.157135 625.292358,173.774109 
	C624.582825,184.669083 623.962830,194.906082 623.197693,205.132233 
	C623.087646,206.602600 624.222595,209.133591 620.921021,208.952209 
	C617.795532,208.780472 618.826660,206.442413 618.819153,204.884338 
	C618.747925,190.224625 618.774231,175.564423 618.785767,160.904358 
	C618.786377,160.143677 618.908691,159.383072 619.042297,157.834412 
	C634.420898,171.477646 649.250916,184.634247 664.752991,198.387070 
	C665.250244,188.124100 665.696655,178.871201 666.148804,169.618576 
	C666.213867,168.287582 666.262695,166.953445 666.398376,165.628891 
	C666.544617,164.202057 666.268188,162.521622 668.615112,162.512939 
	C671.208008,162.503357 670.953979,164.198441 670.952209,165.902451 
	C670.936707,180.562469 670.943115,195.222488 670.942383,210.303955 
z"/>
<path fill="#262324" opacity="1.000000" stroke="none" 
	d="
M763.817383,178.158340 
	C761.693970,176.280884 759.842957,174.635483 757.067688,172.168457 
	C757.067688,179.872314 757.067688,186.572220 757.067627,193.272110 
	C757.067566,197.600601 756.985718,201.931290 757.102966,206.256592 
	C757.158325,208.297745 756.734253,209.266739 754.388489,209.187042 
	C752.339233,209.117432 751.931824,208.312195 751.937988,206.493484 
	C751.987976,191.698273 751.966003,176.902802 751.966003,161.658096 
	C760.178894,163.832443 766.112854,168.786621 771.762207,174.179764 
	C779.330017,181.404495 785.997681,189.621628 795.021667,195.237106 
	C795.719788,195.671509 796.429443,196.087219 797.770447,196.895218 
	C798.189453,190.326340 798.585083,184.143188 798.977844,177.959854 
	C799.231018,173.973480 799.390442,169.978043 799.779907,166.005112 
	C799.914124,164.636322 798.932312,162.374252 801.867615,162.452667 
	C804.491638,162.522751 804.082397,164.350250 804.082825,165.973526 
	C804.086975,181.454590 804.085327,196.935638 804.085327,213.618179 
	C790.323303,201.496674 777.206543,189.943542 763.817383,178.158340 
z"/>
<path fill="#282526" opacity="1.000000" stroke="none" 
	d="
M875.628845,209.601822 
	C874.416687,210.148422 873.513489,210.506760 871.801147,211.186096 
	C873.087097,208.419632 874.048950,206.249954 875.093140,204.120621 
	C880.726013,192.634384 886.358643,181.147903 892.045654,169.688446 
	C893.001831,167.761673 894.027100,165.809311 895.362366,164.142670 
	C898.341736,160.423813 901.401917,160.424454 904.529236,163.950089 
	C905.185059,164.689468 905.778870,165.525909 906.218811,166.408600 
	C912.866394,179.749481 919.483521,193.105545 926.445923,207.139664 
	C919.156738,206.098938 914.973328,202.146164 911.970825,196.788055 
	C908.889160,191.288498 906.132568,185.607773 903.156494,180.047668 
	C901.176331,176.348190 899.101746,176.541336 896.821289,179.930634 
	C894.016296,184.099655 892.127136,188.709778 890.036072,193.228226 
	C886.905884,199.991913 882.977966,206.057266 875.628845,209.601822 
z"/>
<path fill="#292627" opacity="1.000000" stroke="none" 
	d="
M705.493896,184.622925 
	C703.228943,189.099869 701.363525,193.378143 699.056152,197.403091 
	C696.178589,202.422867 692.140869,206.124100 685.122314,207.300400 
	C690.491516,196.169403 695.468689,185.770615 700.526489,175.411179 
	C702.200562,171.982254 703.844421,168.499649 705.921570,165.315140 
	C709.484436,159.852966 713.831238,159.822464 717.123535,165.471909 
	C720.713074,171.631622 723.754944,178.116791 726.908081,184.522827 
	C730.497192,191.814407 733.945190,199.175430 737.798401,207.224792 
	C730.929688,206.185028 726.726868,202.470779 723.778992,197.347137 
	C720.803223,192.175034 718.456726,186.644089 715.562683,181.421005 
	C712.320190,175.569138 711.232239,175.627228 707.477966,181.311676 
	C706.837769,182.280945 706.288574,183.310257 705.493896,184.622925 
z"/>
<path fill="#292627" opacity="1.000000" stroke="none" 
	d="
M862.089844,162.766190 
	C863.458069,161.882416 864.229248,160.148010 865.699646,160.959854 
	C866.554382,161.431793 866.322388,162.779129 865.834229,163.719498 
	C858.385864,178.068237 850.926086,192.411072 842.887695,207.873398 
	C842.048950,204.399567 841.396484,202.226105 841.009705,200.006332 
	C839.069885,188.873444 834.409912,179.168274 826.265808,171.207779 
	C824.245117,169.232666 822.520020,166.952301 820.474304,165.006485 
	C818.915405,163.523727 819.651428,162.581253 820.668518,161.295914 
	C821.913086,159.723099 822.798462,160.459000 823.929565,161.372406 
	C829.754883,166.076843 835.709595,170.626434 841.421814,175.463089 
	C843.687500,177.381485 845.164307,177.679092 847.493469,175.473740 
	C852.081421,171.129852 857.013245,167.149170 862.089844,162.766190 
z"/>
</svg>